<?xml version="1.0" encoding="UTF-8" standalone="no"?>
<!DOCTYPE svg PUBLIC "-//W3C//DTD SVG 1.1//EN"
 "http://www.w3.org/Graphics/SVG/1.1/DTD/svg11.dtd">
<!-- Generated by graphviz version 2.50.0 (0)
 -->
<!-- Pages: 1 -->
<svg width="847pt" height="194pt"
 viewBox="0.00 0.00 847.20 194.40" xmlns="http://www.w3.org/2000/svg" xmlns:xlink="http://www.w3.org/1999/xlink">
<g id="graph0" class="graph" transform="scale(1 1) rotate(0) translate(57.6 151.2)">
<polygon fill="ivory" stroke="transparent" points="-57.6,43.2 -57.6,-151.2 789.6,-151.2 789.6,43.2 -57.6,43.2"/>
<!-- root -->
<g id="node1" class="node">
<title>root</title>
<polygon fill="none" stroke="black" points="557.5,-108 215.5,-108 215.5,-72 557.5,-72 557.5,-108"/>
<text text-anchor="middle" x="386.5" y="-87.2" font-family="Fira Code" font-size="11.00">Should I spend more time reading MDR content?</text>
</g>
<!-- b1 -->
<g id="node2" class="node">
<title>b1</title>
<polygon fill="none" stroke="black" points="261,-36 0,-36 0,0 261,0 261,-36"/>
<text text-anchor="middle" x="130.5" y="-15.2" font-family="Fira Code" font-size="11.00">MDR content is extremely valuable</text>
</g>
<!-- root&#45;&#45;b1 -->
<g id="edge1" class="edge">
<title>root&#45;&#45;b1</title>
<path fill="none" stroke="black" d="M324.2,-71.97C284.39,-61.08 232.94,-47.01 193.08,-36.11"/>
</g>
<!-- b2 -->
<g id="node3" class="node">
<title>b2</title>
<polygon fill="none" stroke="black" points="493.5,-36 279.5,-36 279.5,0 493.5,0 493.5,-36"/>
<text text-anchor="middle" x="386.5" y="-15.2" font-family="Fira Code" font-size="11.00">MDR content is trustworthy</text>
</g>
<!-- root&#45;&#45;b2 -->
<g id="edge2" class="edge">
<title>root&#45;&#45;b2</title>
<path fill="none" stroke="black" d="M386.5,-71.7C386.5,-60.85 386.5,-46.92 386.5,-36.1"/>
</g>
<!-- b3 -->
<g id="node4" class="node">
<title>b3</title>
<polygon fill="none" stroke="black" points="732,-36 511,-36 511,0 732,0 732,-36"/>
<text text-anchor="middle" x="621.5" y="-15.2" font-family="Fira Code" font-size="11.00">MDR content is easy to read</text>
</g>
<!-- root&#45;&#45;b3 -->
<g id="edge3" class="edge">
<title>root&#45;&#45;b3</title>
<path fill="none" stroke="black" d="M443.69,-71.97C480.23,-61.08 527.46,-47.01 564.06,-36.11"/>
</g>
</g>
</svg>
