<?xml version="1.0" encoding="UTF-8" standalone="no"?>
<!DOCTYPE svg PUBLIC "-//W3C//DTD SVG 1.1//EN"
 "http://www.w3.org/Graphics/SVG/1.1/DTD/svg11.dtd">
<!-- Generated by graphviz version 2.50.0 (0)
 -->
<!-- Pages: 1 -->
<svg width="980pt" height="450pt"
 viewBox="0.00 0.00 979.70 450.40" xmlns="http://www.w3.org/2000/svg" xmlns:xlink="http://www.w3.org/1999/xlink">
<g id="graph0" class="graph" transform="scale(1 1) rotate(0) translate(57.6 407.2)">
<polygon fill="ivory" stroke="transparent" points="-57.6,43.2 -57.6,-407.2 922.1,-407.2 922.1,43.2 -57.6,43.2"/>
<!-- root -->
<g id="node1" class="node">
<title>root</title>
<polygon fill="none" stroke="black" points="726,-364 471,-364 471,-328 726,-328 726,-364"/>
<text text-anchor="middle" x="598.5" y="-343.2" font-family="Fira Code" font-size="11.00">Should I spend more time on MDR?</text>
</g>
<!-- a0 -->
<g id="node2" class="node">
<title>a0</title>
<text text-anchor="middle" x="598.5" y="-271.2" font-family="Fira Code" font-size="11.00">Yes</text>
</g>
<!-- root&#45;&#45;a0 -->
<g id="edge1" class="edge">
<title>root&#45;&#45;a0</title>
<path fill="none" stroke="black" d="M598.5,-327.7C598.5,-316.85 598.5,-302.92 598.5,-292.1"/>
</g>
<!-- q1 -->
<g id="node3" class="node">
<title>q1</title>
<polygon fill="lightgrey" stroke="black" points="506.5,-220 258.5,-220 258.5,-184 506.5,-184 506.5,-220"/>
<text text-anchor="middle" x="382.5" y="-199.2" font-family="Fira Code" font-size="11.00">What do I get from reading MDR?</text>
</g>
<!-- a0&#45;&#45;q1 -->
<g id="edge2" class="edge">
<title>a0&#45;&#45;q1</title>
<path fill="none" stroke="black" d="M568.92,-263.41C534.6,-252.29 477.37,-233.75 435.36,-220.13"/>
</g>
<!-- q2 -->
<g id="node4" class="node">
<title>q2</title>
<polygon fill="none" stroke="black" points="672,-220 525,-220 525,-184 672,-184 672,-220"/>
<text text-anchor="middle" x="598.5" y="-199.2" font-family="Fira Code" font-size="11.00">Can I trust MDR?</text>
</g>
<!-- a0&#45;&#45;q2 -->
<g id="edge3" class="edge">
<title>a0&#45;&#45;q2</title>
<path fill="none" stroke="black" d="M598.5,-255.7C598.5,-244.85 598.5,-230.92 598.5,-220.1"/>
</g>
<!-- q3 -->
<g id="node5" class="node">
<title>q3</title>
<polygon fill="none" stroke="black" points="864.5,-220 690.5,-220 690.5,-184 864.5,-184 864.5,-220"/>
<text text-anchor="middle" x="777.5" y="-199.2" font-family="Fira Code" font-size="11.00">Is MDR easy to read?</text>
</g>
<!-- a0&#45;&#45;q3 -->
<g id="edge4" class="edge">
<title>a0&#45;&#45;q3</title>
<path fill="none" stroke="black" d="M628.06,-261.44C656.85,-250.18 700.97,-232.93 733.82,-220.08"/>
</g>
<!-- a1 -->
<g id="node6" class="node">
<title>a1</title>
<text text-anchor="middle" x="382.5" y="-132.2" font-family="Fira Code" font-size="11.00">I will show you how smart contracts</text>
<text text-anchor="middle" x="382.5" y="-120.2" font-family="Fira Code" font-size="11.00">	are actually used, using data directly</text>
<text text-anchor="middle" x="382.5" y="-108.2" font-family="Fira Code" font-size="11.00">	from the blockchain, without any</text>
<text text-anchor="middle" x="382.5" y="-96.2" font-family="Fira Code" font-size="11.00">	conflict of interest.</text>
</g>
<!-- q1&#45;&#45;a1 -->
<g id="edge5" class="edge">
<title>q1&#45;&#45;a1</title>
<path fill="none" stroke="black" d="M382.5,-183.8C382.5,-173.55 382.5,-160.23 382.5,-148.27"/>
</g>
<!-- q11 -->
<g id="node7" class="node">
<title>q11</title>
<polygon fill="none" stroke="black" points="261,-50 0,-50 0,0 261,0 261,-50"/>
<text text-anchor="middle" x="130.5" y="-34.2" font-family="Fira Code" font-size="11.00">Why should I care about </text>
<text text-anchor="middle" x="130.5" y="-22.2" font-family="Fira Code" font-size="11.00">	 how smart contracts are </text>
<text text-anchor="middle" x="130.5" y="-10.2" font-family="Fira Code" font-size="11.00">	 actually used</text>
</g>
<!-- a1&#45;&#45;q11 -->
<g id="edge6" class="edge">
<title>a1&#45;&#45;q11</title>
<path fill="none" stroke="black" d="M298.24,-85.91C265.61,-74.26 228.78,-61.1 197.96,-50.09"/>
</g>
<!-- q12 -->
<g id="node8" class="node">
<title>q12</title>
<polygon fill="none" stroke="black" points="486,-44 279,-44 279,-6 486,-6 486,-44"/>
<text text-anchor="middle" x="382.5" y="-28.2" font-family="Fira Code" font-size="11.00">Why data directly from</text>
<text text-anchor="middle" x="382.5" y="-16.2" font-family="Fira Code" font-size="11.00">	 the blockchains?</text>
</g>
<!-- a1&#45;&#45;q12 -->
<g id="edge7" class="edge">
<title>a1&#45;&#45;q12</title>
<path fill="none" stroke="black" d="M382.5,-85.53C382.5,-71.76 382.5,-55.96 382.5,-44.1"/>
</g>
<!-- q13 -->
<g id="node9" class="node">
<title>q13</title>
<polygon fill="none" stroke="black" points="684.5,-44 504.5,-44 504.5,-6 684.5,-6 684.5,-44"/>
<text text-anchor="middle" x="594.5" y="-28.2" font-family="Fira Code" font-size="11.00">Why without conflict </text>
<text text-anchor="middle" x="594.5" y="-16.2" font-family="Fira Code" font-size="11.00">	 of interest?</text>
</g>
<!-- a1&#45;&#45;q13 -->
<g id="edge8" class="edge">
<title>a1&#45;&#45;q13</title>
<path fill="none" stroke="black" d="M453.39,-85.91C486.01,-72.06 523.63,-56.09 551.82,-44.12"/>
</g>
</g>
</svg>
